<svg xmlns="http://www.w3.org/2000/svg" viewBox="0 0 1740.07 1041"><defs><style>.cls-1,.cls-2{fill:#fff;}.cls-2{stroke:#000;stroke-miterlimit:10;}</style></defs><g id="fomd"><rect class="cls-1" x="2.07" y="1" width="1737" height="1039"/><path d="M1828,21V1059H92V21H1828m1-1H91V1060H1829V20Z" transform="translate(-89.43 -19.5)"/></g><g id="Horizon"><path d="M1828,21V1059H92V21H1828m1-1H91V1060H1829V20Z" transform="translate(-89.43 -19.5)"/><path class="cls-2" d="M91,540S388.5,20,960,20h869V1060H91Z" transform="translate(-89.43 -19.5)"/><rect class="cls-2" x="1.57" y="520.5" width="1738" height="520"/><path class="cls-2" d="M91,1060S825,540,1829,540v520Z" transform="translate(-89.43 -19.5)"/><path class="cls-2" d="M960,540.5c193.9-101.06,244.35-186.95,252.3-248.63,1.72-13.38,3.49-41.46,19-73.08,29-59.13,97.25-112.54,143.34-94.08,50,20,36.65,109.85,92.14,234.35A567.9,567.9,0,0,0,1595.5,540.5Z" transform="translate(-89.43 -19.5)"/><path class="cls-2" d="M1286.18,1060s21-351.65-216.84-423.08l-90.59,24.33s220.16,139.25,173,398.75Z" transform="translate(-89.43 -19.5)"/><path class="cls-2" d="M752.71,734S884,562.5,1077.24,540H960S648.25,650.92,509.37,832.21Z" transform="translate(-89.43 -19.5)"/><path class="cls-2" d="M1508.53,540.5s24.73-7.06,36.35-54.53l-14.77-18.92S1532.5,540,1385,540Z" transform="translate(-89.43 -19.5)"/><path class="cls-2" d="M1154.32,403.13S1036,50,655.25,72.27l-78.32,31.79s346,5,500.31,365.7C1077.24,469.76,1151.14,412.76,1154.32,403.13Z" transform="translate(-89.43 -19.5)"/></g></svg>