<svg xmlns="http://www.w3.org/2000/svg" viewBox="0 0 1920 1080"><defs><style>.cls-1{stroke:#000;stroke-miterlimit:10;}</style></defs><g id="asamblage"><path d="M367.13,328.3s-6.45.65-11.51,12-13.9,27.85-34.22,32c-18.32,1-11.43-1.54-26.33-22-8-8.8-12.43-15-8.71-16.16,5.8-2.78,22.94-8.94,39.29-9.83S367.13,328.3,367.13,328.3Z"/><path d="M762.41,361.41S640.82,241.41,590.58,197,417.1,63.21,417.1,63.21c1.84-2.6,23.62,45.18,29,56.63,5.7,12.1,6.8,48.41-15.55,57.2-17.73,7-104.48,36.23-126,57-22.82,21.93-64.76,70.2-58.64,96.26,6,25.56,9.19,46.95,8.31,48.51l-3.3,21.43L226.74,456c.37-2-8.68,5.82,22.19,1.8,21.09.06-9.4,54.78-9.4,54.78s-7.42,20,31,34.35c38.87,14.48,63.53,59.68,183-35.75,0,0-4.47,11.76-31.5,37-3.69,3.45-29,18.49-36.5,21.9s-48.42,11.86-54.37,10.56c-2.79-.6-43.4,3.28-62.89-27.08-33.74-9.26-51.36-38.79-58-57.37S219.79,455,219.79,455s19.66-38.95,18.9-85.1c-.76-46.73-16.45-73.66,78.31-156.22,39.56-33.09,47.15-42.74,49.06-67.33-15-7.5-88.4-45.1-88.4-45.1s-7.5-3.75-4.83,8.11,15.95,69.82,33.44,86c-15.95-17.61-50.06-86-51.67-100.67s22-6.28,22-6.28,83.88,29.18,88.65,34.93C367.52,113.47,376,29.87,376,29.87s3.52-13.53,36.17,9.13C445,61.76,715.1,274.7,762.41,361.41Z"/><path class="cls-1" d="M736.19,959.93c-80.33,89.54-215.11,101.2-309.28,29.8,92.29,54.68,213.3,38.53,287.66-44.35C799.22,851,791.36,705.94,697,621.28q-7.28-6.53-14.94-12.32a230.93,230.93,0,0,1,36.57,26.85C813,720.47,820.84,865.58,736.19,959.93Z"/><path class="cls-1" d="M1419,1016.84c-118.17-70.68-160.75-219.56-101.12-341-41.26,115.65,3.35,248.09,112.74,313.52,124.52,74.47,285.83,33.91,360.32-90.63q5.74-9.59,10.57-19.48a264.66,264.66,0,0,1-22.17,47C1704.82,1050.77,1543.49,1091.32,1419,1016.84Z"/><path class="cls-1" d="M794.88,569.59a176.88,176.88,0,0,0-117-12.37c-95.52,22.57-154.64,118.32-132.07,213.84a177,177,0,0,0,72.1,105.44,177.72,177.72,0,1,1,177-306.91Z"/><path class="cls-1" d="M1142.9,987.33c-86.41,83.69-221.67,85.88-310.62,8,88.24,61,210.08,53.39,290.07-24.08,91.05-88.19,93.37-233.48,5.18-324.54q-6.79-7-14-13.34a232.2,232.2,0,0,1,34.6,29.36C1236.29,753.84,1234,899.14,1142.9,987.33Z"/><path class="cls-1" d="M1212.74,569.59a176.88,176.88,0,0,0-117-12.37c-95.51,22.57-154.64,118.32-132.07,213.84a177,177,0,0,0,72.1,105.44,177.72,177.72,0,1,1,177-306.91Z"/><path class="cls-1" d="M525.12,580.83a87.51,87.51,0,0,1-81.78,87.35,87.53,87.53,0,0,0-20.22-172.69q-2.94,0-5.82.2a87.58,87.58,0,0,1,107.82,85.14Z"/><path class="cls-1" d="M803.36,357.89c-38.05,17.79-70.36,39.65-96.7,64.46A378.72,378.72,0,0,1,786.09,373c195.25-91.31,467.35-40.74,607.77,112.93,113,123.7,106.25,276.52-2.56,379,125.08-102.14,138.55-264.22,19.82-394.18C1270.71,317.15,998.61,266.58,803.36,357.89Z"/></g></svg>