<svg id="Calque_1" data-name="Calque 1" xmlns="http://www.w3.org/2000/svg" viewBox="0 0 433.9 413.65"><defs><style>.cls-1{fill:#fff;}.cls-2{fill:#006837;}.cls-3{font-size:50.89px;fill:#009245;stroke:#009245;stroke-width:2px;font-family:SegoeScript-Bold, Segoe Script;font-weight:700;}.cls-3,.cls-6{stroke-miterlimit:10;}.cls-4{letter-spacing:0.08em;}.cls-5{letter-spacing:0em;}.cls-6{fill:none;stroke:#c7b299;}</style></defs><ellipse class="cls-1" cx="216.9" cy="211.32" rx="211.94" ry="201.7"/><path class="cls-2" d="M537,240c-.41,84.49-59.16,159.16-137.27,187.66C264.74,479.34,106.8,389.21,103.13,240,100.88,86.51,264.32-10.91,402.79,44.27,482.14,74.76,539,154.4,537,240Zm-10,0c-.46-80.39-56.58-151.19-130.87-178.28C267.15,12.67,117,97.44,113,240c-2.1,146.72,154,239,286.19,186.35C474.71,397.27,528.94,321.52,526.94,240Z" transform="translate(-103.1 -28.68)"/><path d="M220,142.82C256.1,201,256,279,220.45,337.37l-.91-.41a401.62,401.62,0,0,0,12.67-48.15c10.09-49,3.1-98.82-12.17-146Z" transform="translate(-103.1 -28.68)"/><path d="M420,142.86c-2.5,8.06-5.06,16-7.37,24.07-.88,3.64-2.14,8.5-3,12a254.49,254.49,0,0,0-6.6,60.78c.36,33.16,8.07,65.24,17.43,97.2l-.92.41C383,279.88,379.19,199,420,142.86Z" transform="translate(-103.1 -28.68)"/><path d="M147.28,142.83c117,34,225.4,41.69,341.75,0-103.27,61.23-236.9,53.42-341.75,0Z" transform="translate(-103.1 -28.68)"/><path d="M169.68,379.94,320,237.94c42.88,39.84,89.12,84,131.19,124.6,4.15,4,12.16,11.73,16.27,15.71l.58.56a2.45,2.45,0,0,1,.53.62,2.94,2.94,0,0,1-.08,2.39l-.7.72a2.93,2.93,0,0,1-2.39.14,7.14,7.14,0,0,1-1.21-1.07l-16.14-15.85c-41.72-41-87.1-86-128-127.82L174,384.42l-4.36-4.48Z" transform="translate(-103.1 -28.68)"/><path d="M186.45,189.09c66.28,21.77,134.38,30.54,202.9,14.08l15.35-4,15.19-4.72c3.68-1.35,11.3-4.06,15-5.35-77.79,39.7-169.72,34-248.46,0Z" transform="translate(-103.1 -28.68)"/><text class="cls-3" transform="translate(139.02 114.16) scale(0.74 1)">D<tspan class="cls-4" x="44.18" y="0">E</tspan><tspan class="cls-5" x="86.43" y="0">VDO</tspan></text><path class="cls-6" d="M178.6,384.54" transform="translate(-103.1 -28.68)"/><path class="cls-2" d="M349.51,289.15c-2.53-9.11,3.77-17.7,13-18.67-9.05,1.16-15.14,9.62-12.46,18.5l-.57.17Z" transform="translate(-103.1 -28.68)"/><path class="cls-2" d="M348.2,289a20.17,20.17,0,0,0-4.93-18.15h0a20.48,20.48,0,0,1,5.47,18.27l-.54-.11Z" transform="translate(-103.1 -28.68)"/><path class="cls-2" d="M346.6,289a6.31,6.31,0,0,0-.89-5.51,6.85,6.85,0,0,1,2,5.74L346.6,289Z" transform="translate(-103.1 -28.68)"/><path class="cls-2" d="M350.83,289.19c-.62-3.5,2.17-6.46,5.39-7.24a7.15,7.15,0,0,0-3.91,2.61,4.56,4.56,0,0,0-.47,4.37l-1,.26Z" transform="translate(-103.1 -28.68)"/><path class="cls-2" d="M349.93,289.22a11.08,11.08,0,0,1,9.85-14.06,12.2,12.2,0,0,0-4.44,1.64,10.28,10.28,0,0,0-4.4,12.11l-1,.31Z" transform="translate(-103.1 -28.68)"/><path class="cls-2" d="M347.14,288.9a8.7,8.7,0,0,0-4-10.36,12.49,12.49,0,0,0-3.88-1.42c6.1.48,10.64,6,9,12.11l-1.17-.33Z" transform="translate(-103.1 -28.68)"/><path class="cls-2" d="M349.1,289.07c-.22-5.59-1.24-11.31.13-16.83-1.29,5.55-.18,11.22.12,16.82Z" transform="translate(-103.1 -28.68)"/><path class="cls-2" d="M258.81,376.65c-4.05-14.81,5.84-28.32,20.86-30.08-10.34,1.27-19.72,9.14-21,19.74a24.8,24.8,0,0,0,.73,10.18l-.57.16Z" transform="translate(-103.1 -28.68)"/><path class="cls-2" d="M256.68,376.51a32.69,32.69,0,0,0-8.13-29.34h0a32.94,32.94,0,0,1,8.67,29.46l-.54-.12Z" transform="translate(-103.1 -28.68)"/><path class="cls-2" d="M254.26,376.46a10.39,10.39,0,0,0-1.76-9,10.87,10.87,0,0,1,2.48,4.2,11.24,11.24,0,0,1,.38,5l-1.1-.23Z" transform="translate(-103.1 -28.68)"/><path class="cls-2" d="M261.07,376.7c-1.2-5.62,3.2-10.32,8.4-11.61a13.73,13.73,0,0,0-3.55,1.57c-3.31,1.94-5.26,6.1-3.83,9.78l-1,.26Z" transform="translate(-103.1 -28.68)"/><path class="cls-2" d="M259.62,376.72c-3.15-11.05,4.34-21.38,15.59-22.61-10.85,1.55-18,11.67-14.58,22.31l-1,.3Z" transform="translate(-103.1 -28.68)"/><path class="cls-2" d="M255.17,376.41a14.29,14.29,0,0,0-6.73-16.91,19.92,19.92,0,0,0-6.32-2.22c9.86,1,16.83,9.55,14.22,19.45l-1.17-.32Z" transform="translate(-103.1 -28.68)"/><path class="cls-2" d="M258.05,376.58c-.38-9-2.06-18.25.12-27.18-2.09,9-.33,18.13.13,27.17Z" transform="translate(-103.1 -28.68)"/><path class="cls-2" d="M210.2,391.65c-4-14.81,5.85-28.32,20.86-30.08-10.34,1.27-19.72,9.14-21,19.74a24.8,24.8,0,0,0,.73,10.18l-.58.16Z" transform="translate(-103.1 -28.68)"/><path class="cls-2" d="M208.08,391.51A32.69,32.69,0,0,0,200,362.17h0a33,33,0,0,1,8.67,29.46l-.54-.12Z" transform="translate(-103.1 -28.68)"/><path class="cls-2" d="M205.66,391.46a10.39,10.39,0,0,0-1.77-9,10.75,10.75,0,0,1,2.48,4.2,11.09,11.09,0,0,1,.38,5l-1.09-.23Z" transform="translate(-103.1 -28.68)"/><path class="cls-2" d="M212.47,391.7c-1.21-5.62,3.2-10.32,8.39-11.61a13.52,13.52,0,0,0-3.54,1.57c-3.31,1.94-5.27,6.1-3.84,9.78l-1,.26Z" transform="translate(-103.1 -28.68)"/><path class="cls-2" d="M211,391.72c-3.14-11.05,4.35-21.38,15.59-22.61-10.85,1.55-18,11.67-14.57,22.31l-1,.3Z" transform="translate(-103.1 -28.68)"/><path class="cls-2" d="M206.56,391.41a14.29,14.29,0,0,0-6.73-16.91,19.87,19.87,0,0,0-6.31-2.22c9.85,1,16.82,9.55,14.21,19.45l-1.17-.32Z" transform="translate(-103.1 -28.68)"/><path class="cls-2" d="M209.44,391.58c-.37-9-2.05-18.25.13-27.18-2.1,9-.33,18.13.12,27.17Z" transform="translate(-103.1 -28.68)"/><path class="cls-2" d="M327.37,369.2c-4.06-14.82,5.84-28.33,20.85-30.09-10.33,1.27-19.72,9.15-21,19.75a24.77,24.77,0,0,0,.73,10.17l-.57.17Z" transform="translate(-103.1 -28.68)"/><path class="cls-2" d="M325.24,369.06a32.68,32.68,0,0,0-8.13-29.34h0a32.94,32.94,0,0,1,8.67,29.46l-.54-.11Z" transform="translate(-103.1 -28.68)"/><path class="cls-2" d="M322.82,369a10.36,10.36,0,0,0-1.77-9,10.82,10.82,0,0,1,2.48,4.2,11,11,0,0,1,.38,5l-1.09-.23Z" transform="translate(-103.1 -28.68)"/><path class="cls-2" d="M329.63,369.24c-1.2-5.62,3.2-10.32,8.39-11.61a13.86,13.86,0,0,0-3.54,1.57c-3.31,1.95-5.26,6.1-3.83,9.79l-1,.25Z" transform="translate(-103.1 -28.68)"/><path class="cls-2" d="M328.17,369.27c-3.14-11,4.35-21.39,15.6-22.61-10.86,1.54-18,11.66-14.58,22.3l-1,.31Z" transform="translate(-103.1 -28.68)"/><path class="cls-2" d="M323.73,369A14.3,14.3,0,0,0,317,352a19.87,19.87,0,0,0-6.31-2.22c9.85,1,16.83,9.55,14.21,19.46l-1.16-.33Z" transform="translate(-103.1 -28.68)"/><path class="cls-2" d="M326.61,369.12c-.38-9-2.06-18.25.12-27.18-2.1,9-.33,18.13.13,27.17Z" transform="translate(-103.1 -28.68)"/><path class="cls-2" d="M273.12,417.11C269.07,402.3,279,388.78,294,387c-10.34,1.27-19.72,9.14-21,19.74A24.65,24.65,0,0,0,273.7,417l-.58.16Z" transform="translate(-103.1 -28.68)"/><path class="cls-2" d="M271,417a32.67,32.67,0,0,0-8.14-29.34h0a33,33,0,0,1,8.66,29.46L271,417Z" transform="translate(-103.1 -28.68)"/><path class="cls-2" d="M268.58,416.91a10.4,10.4,0,0,0-1.77-9,10.86,10.86,0,0,1,2.48,4.21,11.05,11.05,0,0,1,.38,5l-1.09-.23Z" transform="translate(-103.1 -28.68)"/><path class="cls-2" d="M275.39,417.16c-1.21-5.62,3.2-10.33,8.39-11.62a14.21,14.21,0,0,0-3.54,1.57c-3.31,1.95-5.27,6.1-3.84,9.79l-1,.26Z" transform="translate(-103.1 -28.68)"/><path class="cls-2" d="M273.93,417.18c-3.14-11.05,4.35-21.39,15.59-22.61-10.85,1.55-18,11.67-14.57,22.31l-1,.3Z" transform="translate(-103.1 -28.68)"/><path class="cls-2" d="M269.48,416.87A14.28,14.28,0,0,0,262.75,400a19.47,19.47,0,0,0-6.31-2.22c9.85,1,16.82,9.55,14.21,19.45l-1.17-.32Z" transform="translate(-103.1 -28.68)"/><path class="cls-2" d="M272.36,417c-.37-9-2.05-18.25.13-27.17-2.1,8.95-.34,18.13.12,27.16Z" transform="translate(-103.1 -28.68)"/><path class="cls-2" d="M341.68,417.41c-4.05-14.81,5.84-28.33,20.86-30.08-10.34,1.27-19.72,9.14-21,19.74a24.64,24.64,0,0,0,.72,10.18l-.57.16Z" transform="translate(-103.1 -28.68)"/><path class="cls-2" d="M339.56,417.27a32.69,32.69,0,0,0-8.14-29.34h0a32.94,32.94,0,0,1,8.67,29.46l-.53-.12Z" transform="translate(-103.1 -28.68)"/><path class="cls-2" d="M337.13,417.21a10.4,10.4,0,0,0-1.76-9,11,11,0,0,1,2.48,4.21,11.19,11.19,0,0,1,.38,5l-1.1-.23Z" transform="translate(-103.1 -28.68)"/><path class="cls-2" d="M343.94,417.46c-1.2-5.62,3.21-10.33,8.4-11.62a14.44,14.44,0,0,0-3.55,1.57c-3.31,1.95-5.26,6.1-3.83,9.79l-1,.26Z" transform="translate(-103.1 -28.68)"/><path class="cls-2" d="M342.49,417.48c-3.14-11.05,4.34-21.39,15.59-22.61-10.85,1.55-18,11.67-14.58,22.31l-1,.3Z" transform="translate(-103.1 -28.68)"/><path class="cls-2" d="M338,417.17a14.28,14.28,0,0,0-6.73-16.91A19.47,19.47,0,0,0,325,398c9.85,1,16.82,9.55,14.21,19.45l-1.17-.32Z" transform="translate(-103.1 -28.68)"/><path class="cls-2" d="M340.92,417.33c-.38-9-2.05-18.25.13-27.17-2.1,8.95-.34,18.13.12,27.16Z" transform="translate(-103.1 -28.68)"/><path class="cls-2" d="M361.14,319.43c-2.53-9.11,3.76-17.69,13-18.66-9,1.16-15.13,9.62-12.45,18.5l-.57.16Z" transform="translate(-103.1 -28.68)"/><path class="cls-2" d="M359.83,319.3a20.18,20.18,0,0,0-4.94-18.15h0a20.46,20.46,0,0,1,5.47,18.27l-.53-.11Z" transform="translate(-103.1 -28.68)"/><path class="cls-2" d="M358.22,319.24a6.3,6.3,0,0,0-.88-5.51,6.87,6.87,0,0,1,2,5.74l-1.09-.23Z" transform="translate(-103.1 -28.68)"/><path class="cls-2" d="M362.45,319.48c-.61-3.5,2.17-6.46,5.4-7.24a7.14,7.14,0,0,0-3.92,2.61,4.53,4.53,0,0,0-.46,4.37l-1,.26Z" transform="translate(-103.1 -28.68)"/><path class="cls-2" d="M361.55,319.51a11.1,11.1,0,0,1,9.85-14.07,12.54,12.54,0,0,0-4.44,1.65,10.27,10.27,0,0,0-4.39,12.11l-1,.31Z" transform="translate(-103.1 -28.68)"/><path class="cls-2" d="M358.77,319.19a8.7,8.7,0,0,0-4-10.36,12.33,12.33,0,0,0-3.88-1.43c6.11.49,10.64,6,9,12.12l-1.17-.33Z" transform="translate(-103.1 -28.68)"/><path class="cls-2" d="M360.73,319.36c-.22-5.59-1.24-11.31.12-16.84-1.28,5.56-.17,11.23.13,16.83Z" transform="translate(-103.1 -28.68)"/><path class="cls-2" d="M394.68,400.91c-4.06-14.81,5.84-28.33,20.85-30.08-10.33,1.27-19.72,9.14-21,19.74a24.82,24.82,0,0,0,.73,10.18l-.57.16Z" transform="translate(-103.1 -28.68)"/><path class="cls-2" d="M392.55,400.77a32.69,32.69,0,0,0-8.13-29.34h0a32.94,32.94,0,0,1,8.67,29.46l-.54-.12Z" transform="translate(-103.1 -28.68)"/><path class="cls-2" d="M390.13,400.71a10.37,10.37,0,0,0-1.77-9,10.93,10.93,0,0,1,2.86,9.2l-1.09-.23Z" transform="translate(-103.1 -28.68)"/><path class="cls-2" d="M396.94,401c-1.2-5.62,3.2-10.33,8.39-11.62a14.21,14.21,0,0,0-3.54,1.57c-3.31,1.95-5.26,6.1-3.83,9.79l-1,.26Z" transform="translate(-103.1 -28.68)"/><path class="cls-2" d="M395.48,401c-3.14-11.05,4.35-21.39,15.6-22.61-10.86,1.55-18,11.67-14.58,22.31l-1,.3Z" transform="translate(-103.1 -28.68)"/><path class="cls-2" d="M391,400.67a14.3,14.3,0,0,0-6.74-16.91,19.31,19.31,0,0,0-6.31-2.22c9.85,1,16.83,9.55,14.21,19.45l-1.16-.32Z" transform="translate(-103.1 -28.68)"/><path class="cls-2" d="M393.92,400.83c-.38-9-2.06-18.25.12-27.17-2.1,8.95-.33,18.13.13,27.16Z" transform="translate(-103.1 -28.68)"/><path class="cls-2" d="M393.63,364.48c-4.06-14.81,5.84-28.32,20.85-30.08-10.33,1.27-19.72,9.14-21,19.74a24.8,24.8,0,0,0,.73,10.18l-.57.16Z" transform="translate(-103.1 -28.68)"/><path class="cls-2" d="M391.5,364.34A32.69,32.69,0,0,0,383.37,335h0A32.94,32.94,0,0,1,392,364.46l-.54-.12Z" transform="translate(-103.1 -28.68)"/><path class="cls-2" d="M389.08,364.29a10.38,10.38,0,0,0-1.77-9,10.93,10.93,0,0,1,2.86,9.2l-1.09-.22Z" transform="translate(-103.1 -28.68)"/><path class="cls-2" d="M395.89,364.53c-1.2-5.62,3.2-10.33,8.39-11.62a14.21,14.21,0,0,0-3.54,1.57c-3.31,1.95-5.26,6.1-3.83,9.79l-1,.26Z" transform="translate(-103.1 -28.68)"/><path class="cls-2" d="M394.43,364.55c-3.14-11.05,4.35-21.39,15.6-22.61-10.86,1.55-18,11.67-14.58,22.31l-1,.3Z" transform="translate(-103.1 -28.68)"/><path class="cls-2" d="M390,364.24a14.3,14.3,0,0,0-6.74-16.91,19.54,19.54,0,0,0-6.31-2.22c9.85,1,16.83,9.55,14.21,19.45l-1.16-.32Z" transform="translate(-103.1 -28.68)"/><path class="cls-2" d="M392.87,364.41c-.38-9-2.06-18.26.12-27.18-2.1,8.95-.33,18.13.13,27.16l-.25,0Z" transform="translate(-103.1 -28.68)"/><path class="cls-2" d="M256.77,333.37c-2.55-9.06,3.9-17.39,13-18.32-8.91,1.11-15.16,9.32-12.46,18.15l-.57.17Z" transform="translate(-103.1 -28.68)"/><path class="cls-2" d="M255.46,333.23a19.54,19.54,0,0,0-4.93-17.81h0A19.82,19.82,0,0,1,256,333.34l-.54-.11Z" transform="translate(-103.1 -28.68)"/><path class="cls-2" d="M253.86,333.17a6.1,6.1,0,0,0-.89-5.41,6.68,6.68,0,0,1,2,5.64l-1.09-.23Z" transform="translate(-103.1 -28.68)"/><path class="cls-2" d="M258.09,333.42c-.63-3.48,2.21-6.36,5.39-7.11a7.08,7.08,0,0,0-3.89,2.54,4.35,4.35,0,0,0-.48,4.3l-1,.27Z" transform="translate(-103.1 -28.68)"/><path class="cls-2" d="M257.19,333.44a10.9,10.9,0,0,1,9.85-13.8,12.57,12.57,0,0,0-4.41,1.6,10,10,0,0,0-4.43,11.89l-1,.31Z" transform="translate(-103.1 -28.68)"/><path class="cls-2" d="M254.41,333.12a8.48,8.48,0,0,0-4-10.17,12.51,12.51,0,0,0-3.85-1.39c6,.45,10.65,5.81,9,11.89l-1.16-.33Z" transform="translate(-103.1 -28.68)"/><path class="cls-2" d="M256.36,333.29c-.21-5.48-1.24-11.1.13-16.52-1.28,5.45-.18,11,.12,16.51Z" transform="translate(-103.1 -28.68)"/><path class="cls-2" d="M309.28,316.78c-2.53-9.11,3.77-17.69,13-18.66-9.05,1.15-15.14,9.62-12.46,18.5l-.57.16Z" transform="translate(-103.1 -28.68)"/><path class="cls-2" d="M308,316.64A20.19,20.19,0,0,0,303,298.49h0a20.46,20.46,0,0,1,5.47,18.26l-.54-.11Z" transform="translate(-103.1 -28.68)"/><path class="cls-2" d="M306.37,316.58a6.31,6.31,0,0,0-.89-5.51,6.87,6.87,0,0,1,2,5.74l-1.09-.23Z" transform="translate(-103.1 -28.68)"/><path class="cls-2" d="M310.6,316.83c-.62-3.5,2.16-6.47,5.39-7.25a7.17,7.17,0,0,0-3.91,2.62,4.53,4.53,0,0,0-.47,4.37l-1,.26Z" transform="translate(-103.1 -28.68)"/><path class="cls-2" d="M309.7,316.85a11.08,11.08,0,0,1,9.85-14.06,12.34,12.34,0,0,0-4.45,1.65,10.27,10.27,0,0,0-4.39,12.11l-1,.3Z" transform="translate(-103.1 -28.68)"/><path class="cls-2" d="M306.91,316.53a8.7,8.7,0,0,0-4-10.35,12.26,12.26,0,0,0-3.88-1.43c6.1.48,10.63,6,9,12.11l-1.17-.33Z" transform="translate(-103.1 -28.68)"/><path class="cls-2" d="M308.87,316.7c-.22-5.58-1.24-11.31.13-16.83-1.29,5.55-.18,11.22.12,16.82Z" transform="translate(-103.1 -28.68)"/><path class="cls-2" d="M282.38,300.5c-2.53-9.11,3.77-17.69,13-18.67-9.05,1.16-15.14,9.62-12.46,18.5l-.57.17Z" transform="translate(-103.1 -28.68)"/><path class="cls-2" d="M281.07,300.36a20.18,20.18,0,0,0-4.94-18.15h0a20.48,20.48,0,0,1,5.47,18.27l-.54-.11Z" transform="translate(-103.1 -28.68)"/><path class="cls-2" d="M279.47,300.3a6.31,6.31,0,0,0-.89-5.51,6.85,6.85,0,0,1,2,5.74l-1.09-.23Z" transform="translate(-103.1 -28.68)"/><path class="cls-2" d="M283.7,300.54c-.62-3.5,2.17-6.46,5.39-7.24a7.11,7.11,0,0,0-3.91,2.62,4.53,4.53,0,0,0-.47,4.37l-1,.25Z" transform="translate(-103.1 -28.68)"/><path class="cls-2" d="M282.8,300.57a11.08,11.08,0,0,1,9.85-14.06,12.32,12.32,0,0,0-4.45,1.64,10.28,10.28,0,0,0-4.39,12.11l-1,.31Z" transform="translate(-103.1 -28.68)"/><path class="cls-2" d="M280,300.25a8.7,8.7,0,0,0-4-10.36,12.49,12.49,0,0,0-3.88-1.42c6.1.48,10.63,6,9,12.11l-1.17-.33Z" transform="translate(-103.1 -28.68)"/><path class="cls-2" d="M282,300.42c-.22-5.59-1.24-11.31.13-16.83-1.29,5.55-.18,11.22.12,16.82Z" transform="translate(-103.1 -28.68)"/><path class="cls-2" d="M319.65,279.86c-2.53-9.11,3.77-17.7,13-18.67-9.05,1.16-15.14,9.62-12.46,18.5l-.57.17Z" transform="translate(-103.1 -28.68)"/><path class="cls-2" d="M318.34,279.72a20.17,20.17,0,0,0-4.93-18.15h0a20.48,20.48,0,0,1,5.47,18.27l-.54-.11Z" transform="translate(-103.1 -28.68)"/><path class="cls-2" d="M316.74,279.66a6.31,6.31,0,0,0-.89-5.51,6.85,6.85,0,0,1,2,5.74l-1.09-.23Z" transform="translate(-103.1 -28.68)"/><path class="cls-2" d="M321,279.9c-.62-3.5,2.17-6.46,5.39-7.24a7.15,7.15,0,0,0-3.91,2.61,4.56,4.56,0,0,0-.47,4.37l-1,.26Z" transform="translate(-103.1 -28.68)"/><path class="cls-2" d="M320.07,279.93a11.08,11.08,0,0,1,9.85-14.06,12.2,12.2,0,0,0-4.44,1.64,10.28,10.28,0,0,0-4.4,12.11l-1,.31Z" transform="translate(-103.1 -28.68)"/><path class="cls-2" d="M317.28,279.61a8.7,8.7,0,0,0-4-10.36,12.49,12.49,0,0,0-3.88-1.42c6.1.48,10.64,6,9,12.11l-1.17-.33Z" transform="translate(-103.1 -28.68)"/><path class="cls-2" d="M319.24,279.78c-.22-5.59-1.24-11.31.13-16.83-1.29,5.55-.18,11.22.12,16.82Z" transform="translate(-103.1 -28.68)"/><path class="cls-2" d="M318.21,254.4a11.58,11.58,0,0,1,10.26-14.63,11.29,11.29,0,0,0-9.69,14.46l-.57.17Z" transform="translate(-103.1 -28.68)"/><path class="cls-2" d="M317.19,254.26a15.77,15.77,0,0,0-3.81-14.2h0a16,16,0,0,1,4.34,14.31l-.53-.11Z" transform="translate(-103.1 -28.68)"/><path class="cls-2" d="M315.87,254.2a4.85,4.85,0,0,0-.58-4.29,5.4,5.4,0,0,1,1.67,4.52l-1.09-.23Z" transform="translate(-103.1 -28.68)"/><path class="cls-2" d="M319.19,254.44c-.41-2.77,1.78-5.08,4.33-5.69a5.4,5.4,0,0,0-3,2.06,3.39,3.39,0,0,0-.27,3.38l-1,.25Z" transform="translate(-103.1 -28.68)"/><path class="cls-2" d="M318.49,254.47a8.75,8.75,0,0,1,7.82-11,9.67,9.67,0,0,0-3.47,1.31,8,8,0,0,0-3.34,9.42l-1,.31Z" transform="translate(-103.1 -28.68)"/><path class="cls-2" d="M316.29,254.15c1.56-4.28-1.67-8.51-6-9.18a9.14,9.14,0,0,1,3.17.87,7.5,7.5,0,0,1,4,8.64l-1.17-.33Z" transform="translate(-103.1 -28.68)"/><path class="cls-2" d="M317.92,254.32c-.16-4.37-.95-8.86.13-13.18-1,4.35-.12,8.79.12,13.17Z" transform="translate(-103.1 -28.68)"/></svg>